# xmcd
#
# Track frame offsets:
#	150
#	13731
#	38741
#	42797
#	51280
#	59659
#	71155
#	85863
#	96466
#	108058
#
# Disc length: 1521 seconds
#
# Revision: 0
# Processed by: cddbd v1.5.2PL0 Copyright (c) Steve Scherf et al.
# Submitted via: dBpowerAMP V4.0
#
DISCID=8505ef0a
DTITLE=Jimmy Martin and The Sunny Mountain Boys - Hit Parade of Love
DYEAR=1900
DGENRE=
TTITLE0=Hit Parade of Love
TTITLE1=Brakeman's Blues
TTITLE2=John Henry
TTITLE3=Worried Man's Blues
TTITLE4=We'll Meet Again Sweetheart
TTITLE5=You'll Be A Lost Ball
TTITLE6=All The Good Times
TTITLE7=Rock Hearts
TTITLE8=Somebody Touched me
TTITLE9=Pike County Breakdown
EXTD=Bluegrass
EXTT0=
EXTT1=
EXTT2=
EXTT3=
EXTT4=
EXTT5=
EXTT6=
EXTT7=
EXTT8=
EXTT9=
PLAYORDER=
